# xmcd
#
# Track frame offsets:
#	150
#	24142
#	47781
#	71416
#	100997
#	130606
#
# Disc length: 2043 seconds
#
# Revision: 0
# Processed by: cddbd v1.5.2PL0 Copyright (c) Steve Scherf et al.
# Submitted via: EasyCDDAExtractor 2010.6.0.0
#
DISCID=4307f906
DTITLE=Culture Spears - Kulenyane
DYEAR=1900
DGENRE=
TTITLE0=Borikhirikhi
TTITLE1=Nchadinyana
TTITLE2=Kulenyane
TTITLE3=Mmapula
TTITLE4=Lorato
TTITLE5=Re mmogo
EXTD=
EXTT0=
EXTT1=
EXTT2=
EXTT3=
EXTT4=
EXTT5=
PLAYORDER=
